<svg xmlns="http://www.w3.org/2000/svg" viewBox="0 0 79.77 57.19"><defs><style>.cls-1{fill:#42210b;}</style></defs><g id="Layer_2" data-name="Layer 2"><g id="Layer_1-2" data-name="Layer 1"><path class="cls-1" d="M.75,47.33l5.34.44a1.64,1.64,0,0,1,.61.17l3.41,1.68a1.7,1.7,0,0,0,.76.18h9a1.75,1.75,0,0,1,1,.33l2,1.48a1.71,1.71,0,0,0,1.79.16L28.26,50a1.69,1.69,0,0,1,1.17-.13l1.59.39a1.69,1.69,0,0,1,.88.52l5.18,5.87a1.71,1.71,0,0,0,2.81-.38l.26-.52a.41.41,0,0,1,.4-.23h.15a.42.42,0,0,0,.43-.32l1.19-5.26a1.7,1.7,0,0,1,1.61-1.33h0a1.69,1.69,0,0,0,1-.37l3-2.36a.41.41,0,0,1,.19-.08l.65-.11a.38.38,0,0,0,.34-.34l.55-3.48a.4.4,0,0,1,.55-.32l.36.14a.42.42,0,0,0,.33,0l2.9-1.45A1.88,1.88,0,0,1,54.6,40l1.83.06a1.71,1.71,0,0,0,1.73-1.4l1.21-6.52a1.7,1.7,0,0,1,2.26-1.29l7.26,2.66a.42.42,0,0,0,.42-.08l.38-.35a.39.39,0,0,1,.37-.1l1.94.45a1.72,1.72,0,0,0,2.09-1.51l.12-1.4a.41.41,0,0,1,.41-.37h.49a.4.4,0,0,0,.31-.15l3.27-4a1.92,1.92,0,0,0,.27-.46l.7-1.81a1.71,1.71,0,0,0-1.43-2.32l-6.36-.6a1.53,1.53,0,0,0-.37,0l-3.33.41a1.65,1.65,0,0,1-1-.19l-1.31-.7a1.66,1.66,0,0,0-.81-.21h-.2a1.7,1.7,0,0,1-1.65-1.27l-.73-2.75a1.73,1.73,0,0,0-.66-1l-.09-.07A1.73,1.73,0,0,1,61,13.57l.07-.67a1.76,1.76,0,0,0-.36-1.23L59,9.57A1.72,1.72,0,0,0,57.28,9l-.59.15a1.73,1.73,0,0,0-1.14.94l-.61,1.34a1.71,1.71,0,0,1-2.25.84l-2.11-1a.42.42,0,0,1-.23-.46l.09-.39a.41.41,0,0,0-.19-.44h0a1.71,1.71,0,0,1-.76-1.92l.35-1.28a.4.4,0,0,0-.19-.46l-.31-.18a.4.4,0,0,1-.2-.34L48.92.4a.41.41,0,0,0-.66-.31L48.11.2,43.56,3.72a1.66,1.66,0,0,1-.77.33l-1.22.2a1.68,1.68,0,0,1-1.33-.35L38.76,2.73a1.69,1.69,0,0,0-.86-.36L36,2.14a1.71,1.71,0,0,0-1.42.48L33.36,3.89a1.72,1.72,0,0,0-.5,1.29l.06,1.39a.44.44,0,0,0,.17.31l.5.36a.4.4,0,0,1,.08.58l-.27.35a.41.41,0,0,0,.28.66h0a.41.41,0,0,1,.36.51l-.81,3.3a.42.42,0,0,1-.38.31l-.47,0a.42.42,0,0,0-.39.35l-.39,2.47a1.88,1.88,0,0,1-.26.68L29.6,19.09a1.67,1.67,0,0,1-.92.69l-3.8,1.16a1.69,1.69,0,0,0-.9.65l-1.64,2.34a1.68,1.68,0,0,1-1,.67L.3,30.26a.4.4,0,0,0-.3.39V31a.37.37,0,0,0,0,.18l1.63,3.25a.4.4,0,0,0,.36.22h.15a.41.41,0,0,1,.4.49L.38,46.85a.41.41,0,0,0,.37.48"/></g></g></svg>