<svg xmlns="http://www.w3.org/2000/svg" viewBox="0 0 501 369.11"><defs><style>.cls-1{fill:#42210b;}.cls-2{fill:none;stroke:#fbb03b;stroke-width:3px;}.cls-2,.cls-3{stroke-miterlimit:10;}.cls-3{fill:blue;stroke:red;stroke-width:5px;}.cls-4{fill:aqua;}</style></defs><g id="Layer_2" data-name="Layer 2"><g id="Layer_1-2" data-name="Layer 1"><path class="cls-1" d="M4.68,295.57l34.84,2.85a2.69,2.69,0,0,1,.92.26l24.35,12a2.63,2.63,0,0,0,1.13.26h61a2.53,2.53,0,0,1,1.52.51L147,325.27a2.55,2.55,0,0,0,2.68.23L179,310.68a2.62,2.62,0,0,1,1.76-.2L196,314.23a2.52,2.52,0,0,1,1.3.79l42,47.53a2.56,2.56,0,0,0,4.21-.56l6.92-14.11a2.56,2.56,0,0,1,2.48-1.43l.95.07a2.55,2.55,0,0,0,2.67-2l8.8-38.94a2.54,2.54,0,0,1,2.41-2l9-.27a2.52,2.52,0,0,0,1.51-.55l20.66-16.4a2.65,2.65,0,0,1,1.19-.52l4.09-.65a2.56,2.56,0,0,0,2.13-2.12l3.38-21.74a2.55,2.55,0,0,1,3.45-2l2.23.86a2.57,2.57,0,0,0,2.07-.09l19.92-10a2.52,2.52,0,0,1,1.21-.27l20.41.61a2.56,2.56,0,0,0,2.59-2.09l10.5-57a2.55,2.55,0,0,1,3.39-1.93l54.32,19.92a2.56,2.56,0,0,0,2.61-.52l2.37-2.19a2.56,2.56,0,0,1,2.31-.61l21.14,4.93a2.55,2.55,0,0,0,3.12-2.26l1.61-18a2.56,2.56,0,0,1,2.55-2.33h3.05a2.56,2.56,0,0,0,2-.93l21.17-25.81a2.42,2.42,0,0,0,.41-.69l8.7-22.49a2.56,2.56,0,0,0-2.14-3.47l-51.18-4.86a3.37,3.37,0,0,0-.55,0l-24.24,3a2.44,2.44,0,0,1-1.52-.29L409,126.37a2.52,2.52,0,0,0-1.21-.3h-9.53a2.56,2.56,0,0,1-2.47-1.9l-6.89-26a2.58,2.58,0,0,0-1-1.42l-6.74-4.85a2.58,2.58,0,0,1-1.05-2.32l1.15-12.08a2.51,2.51,0,0,0-.54-1.83L365,55.9a2.55,2.55,0,0,0-2.62-.89l-12.48,3.12a2.56,2.56,0,0,0-1.7,1.41l-8.83,19.13A2.55,2.55,0,0,1,336,79.93l-20.43-9.2a2.56,2.56,0,0,1-1.44-2.89l.54-2.41a2.56,2.56,0,0,0-1.18-2.75l-5.43-3.26a2.56,2.56,0,0,1-1.15-2.86l3.82-13.91a2.56,2.56,0,0,0-1.2-2.9l-1.9-1.08a2.55,2.55,0,0,1-1.28-2.13L305.19,2.75A2.55,2.55,0,0,0,301.06.83l-.9.71-30,23.19a2.58,2.58,0,0,1-1.15.5l-13.16,2.14a2.53,2.53,0,0,1-2-.52L240,15.86a2.51,2.51,0,0,0-1.28-.53l-17.82-2.19a2.51,2.51,0,0,0-2.11.73L205.57,27.1a2.53,2.53,0,0,0-.74,1.93l.58,12.21a2.53,2.53,0,0,0,1.05,1.95l3.1,2.23a2.56,2.56,0,0,1,.51,3.65l-1.71,2.19a2.55,2.55,0,0,0,1.78,4.12h0a2.55,2.55,0,0,1,2.24,3.16l-5.07,20.59A2.57,2.57,0,0,1,205,81.07l-3,.15a2.55,2.55,0,0,0-2.4,2.15l-2.71,17.17a2.6,2.6,0,0,1-.39,1l-13.41,20.28a2.52,2.52,0,0,1-1.39,1l-29.15,8.85a2.55,2.55,0,0,0-1.35,1L137.66,152a2.53,2.53,0,0,1-1.43,1L1.89,189A2.56,2.56,0,0,0,0,191.5v2.18a2.49,2.49,0,0,0,.27,1.14l10.12,20.25a2.56,2.56,0,0,0,2.29,1.41h.89a2.56,2.56,0,0,1,2.51,3l-13.71,73a2.55,2.55,0,0,0,2.31,3"/><polyline class="cls-2" points="268.12 130.06 282.65 107.97 303.26 0.28"/><polyline class="cls-2" points="199.59 83.37 268.12 130.06 461.61 206.19"/><polyline class="cls-2" points="279.78 134.64 270 146.78 249.43 181.85 178.83 235.73 178.83 251.68 117.78 282.81 117.78 310.95"/><circle class="cls-3" cx="282.03" cy="107.35" r="9.42"/><path class="cls-4" d="M236.32,367.78a2.55,2.55,0,0,1-4.15.47l-39.62-44.8a2.61,2.61,0,0,0-1.31-.79l-10.6-2.57a2.56,2.56,0,0,0-1.76.2l-31.61,14.34a2.55,2.55,0,0,1-2.68-.23l-18.52-13.81a2.56,2.56,0,0,0-1.53-.51l-58.69.48a2.51,2.51,0,0,1-1.13-.27l-24.35-12a2.49,2.49,0,0,0-.92-.26L6.38,305.69a2.75,2.75,0,0,1-2.52-3.12l1-7,34.61,2.56a2.47,2.47,0,0,1,.92.25l24.35,12a2.63,2.63,0,0,0,1.13.26h61a2.58,2.58,0,0,1,1.53.51L146.89,325a2.55,2.55,0,0,0,2.68.23l29.31-14.81a2.5,2.5,0,0,1,1.76-.2L196,313.92a2.58,2.58,0,0,1,1.3.79l42,47.54Z"/></g></g></svg>